<?xml version="1.0" encoding="UTF-8"?> <svg xmlns="http://www.w3.org/2000/svg" width="255" height="213" viewBox="0 0 255 213" fill="none"> <path d="M219.32 10.0258C208.638 3.49208 196.256 0.0156717 183.611 1.4714e-05C172.68 0.109965 161.928 2.68924 152.216 7.53106C142.504 12.3729 134.101 19.3428 127.681 27.8825C121.271 19.3325 112.871 12.355 103.156 7.51205C93.4419 2.66908 82.6848 0.095958 71.7515 1.4714e-05C59.0446 -0.00825405 46.5968 3.46871 35.8583 10.0258C1.56298 30.6707 -10.1761 76.4097 9.61438 112.123C25.7786 141.311 93.939 191.974 118.585 209.652C121.161 211.501 124.286 212.5 127.497 212.5C130.707 212.5 133.832 211.501 136.409 209.652C160.993 191.855 229.215 141.311 245.379 112.123C265.169 76.3504 253.43 30.6114 219.32 10.0258Z" fill="#E4E4E3"></path> </svg> 